<svg xmlns="http://www.w3.org/2000/svg" viewBox="0 0 24 24" width="24" height="24">
  <path fill="#007ACC" d="M23.15 2.587L18.21.21a1.516 1.516 0 0 0-1.706.355L7.885 8.798 3.276 5.205a1.01 1.01 0 0 0-1.29.049L.635 6.467a1.012 1.012 0 0 0 0 1.47L4.7 12l-4.066 4.065a1.012 1.012 0 0 0 0 1.47l1.353 1.214a1.012 1.012 0 0 0 1.289.048l4.609-3.593 8.619 8.233a1.516 1.516 0 0 0 1.706.355l4.94-2.377A1.516 1.516 0 0 0 24 20.06V3.939a1.516 1.516 0 0 0-.85-1.352zm-5.146 14.861L10.826 12l7.178-5.448v10.896z"/>
</svg>
